<svg xmlns="http://www.w3.org/2000/svg" width="100%" height="100%">
  <defs>
    <pattern id="patronPremiumMarronBordesOscuros" x="0" y="0" width="300" height="300" 
             patternUnits="userSpaceOnUse"
             patternTransform="rotate(45)">
      
      <rect width="300" height="300" fill="#4a3525"/>
      
      <defs>
        <g id="rH_1_m"><rect width="100" height="50" rx="8" ry="8" fill="#8c6a4a" stroke="#4a3525" stroke-width="2"/></g>
        <g id="rV_1_m"><rect width="50" height="100" rx="8" ry="8" fill="#8c6a4a" stroke="#4a3525" stroke-width="2"/></g>
        <g id="sq_1_m"><rect width="50" height="50" rx="8" ry="8" fill="#8c6a4a" stroke="#4a3525" stroke-width="2"/></g>

        <g id="rH_2_m"><rect width="100" height="50" rx="8" ry="8" fill="#a6845e" stroke="#4a3525" stroke-width="2"/></g>
        <g id="rV_2_m"><rect width="50" height="100" rx="8" ry="8" fill="#a6845e" stroke="#4a3525" stroke-width="2"/></g>
        <g id="sq_2_m"><rect width="50" height="50" rx="8" ry="8" fill="#a6845e" stroke="#4a3525" stroke-width="2"/></g>

        <g id="rH_3_m"><rect width="100" height="50" rx="8" ry="8" fill="#c2a37c" stroke="#4a3525" stroke-width="2"/></g>
        <g id="rV_3_m"><rect width="50" height="100" rx="8" ry="8" fill="#c2a37c" stroke="#4a3525" stroke-width="2"/></g>
        <g id="sq_3_m"><rect width="50" height="50" rx="8" ry="8" fill="#c2a37c" stroke="#4a3525" stroke-width="2"/></g>
      </defs>

      <use href="#rH_1_m" x="0" y="0" />
      <use href="#sq_2_m" x="100" y="0" />
      <use href="#sq_3_m" x="0" y="50" />
      <use href="#rV_2_m" x="50" y="50" />
      <use href="#rV_3_m" x="100" y="50" />
      <use href="#sq_1_m" x="0" y="100" />

      <use href="#rH_2_m" x="150" y="0" />
      <use href="#sq_3_m" x="250" y="0" />
      <use href="#sq_1_m" x="150" y="50" />
      <use href="#rV_3_m" x="200" y="50" />
      <use href="#rV_1_m" x="250" y="50" />
      <use href="#sq_2_m" x="150" y="100" />

      <use href="#rH_3_m" x="0" y="150" />
      <use href="#sq_1_m" x="100" y="150" />
      <use href="#sq_2_m" x="0" y="200" />
      <use href="#rV_1_m" x="50" y="200" />
      <use href="#rV_2_m" x="100" y="200" />
      <use href="#sq_3_m" x="0" y="250" />

      <use href="#rH_2_m" x="150" y="150" />
      <use href="#sq_1_m" x="250" y="150" />
      <use href="#sq_3_m" x="150" y="200" />
      <use href="#rV_2_m" x="200" y="200" />
      <use href="#rV_1_m" x="250" y="200" />
      <use href="#sq_3_m" x="150" y="250" />

    </pattern>
  </defs>
  
  <rect width="100%" height="100%" fill="url(#patronPremiumMarronBordesOscuros)" />
</svg>